<svg width="220" height="220" viewBox="0 0 220 220" fill="none" xmlns="http://www.w3.org/2000/svg">
<path d="M91.6666 36.6666H192.5C194.931 36.6666 197.263 35.7008 198.982 33.9817C200.701 32.2626 201.667 29.9311 201.667 27.4999C201.667 25.0688 200.701 22.7372 198.982 21.0181C197.263 19.299 194.931 18.3333 192.5 18.3333H91.6666C89.2355 18.3333 86.9039 19.299 85.1848 21.0181C83.4658 22.7372 82.5 25.0688 82.5 27.4999C82.5 29.9311 83.4658 32.2626 85.1848 33.9817C86.9039 35.7008 89.2355 36.6666 91.6666 36.6666ZM192.5 183.333H27.5C25.0688 183.333 22.7373 184.299 21.0182 186.018C19.2991 187.737 18.3333 190.069 18.3333 192.5C18.3333 194.931 19.2991 197.263 21.0182 198.982C22.7373 200.701 25.0688 201.667 27.5 201.667H192.5C194.931 201.667 197.263 200.701 198.982 198.982C200.701 197.263 201.667 194.931 201.667 192.5C201.667 190.069 200.701 187.737 198.982 186.018C197.263 184.299 194.931 183.333 192.5 183.333ZM192.5 54.9999H27.5C25.0688 54.9999 22.7373 55.9657 21.0182 57.6848C19.2991 59.4039 18.3333 61.7354 18.3333 64.1666C18.3333 66.5977 19.2991 68.9293 21.0182 70.6484C22.7373 72.3675 25.0688 73.3333 27.5 73.3333H192.5C194.931 73.3333 197.263 72.3675 198.982 70.6484C200.701 68.9293 201.667 66.5977 201.667 64.1666C201.667 61.7354 200.701 59.4039 198.982 57.6848C197.263 55.9657 194.931 54.9999 192.5 54.9999ZM192.5 146.667H100.833C98.4022 146.667 96.0706 147.632 94.3515 149.351C92.6324 151.071 91.6666 153.402 91.6666 155.833C91.6666 158.264 92.6324 160.596 94.3515 162.315C96.0706 164.034 98.4022 165 100.833 165H192.5C194.931 165 197.263 164.034 198.982 162.315C200.701 160.596 201.667 158.264 201.667 155.833C201.667 153.402 200.701 151.071 198.982 149.351C197.263 147.632 194.931 146.667 192.5 146.667ZM192.5 91.6666H27.5C25.0688 91.6666 22.7373 92.6324 21.0182 94.3514C19.2991 96.0705 18.3333 98.4021 18.3333 100.833C18.3333 103.264 19.2991 105.596 21.0182 107.315C22.7373 109.034 25.0688 110 27.5 110H192.5C194.931 110 197.263 109.034 198.982 107.315C200.701 105.596 201.667 103.264 201.667 100.833C201.667 98.4021 200.701 96.0705 198.982 94.3514C197.263 92.6324 194.931 91.6666 192.5 91.6666Z" fill="#6246EA"/>
</svg>
