<svg width="100" height="100" viewBox="0 0 100 100" fill="none" xmlns="http://www.w3.org/2000/svg">
<path d="M85.875 79.9584C88.4862 76.4582 90.2782 72.4163 91.1186 68.131C91.959 63.8457 91.8264 59.4264 90.7306 55.1992C89.6348 50.972 87.6038 47.0448 84.7874 43.7074C81.971 40.37 78.4412 37.7076 74.4583 35.9168C73.5908 30.9255 71.597 26.1977 68.6284 22.0925C65.6599 17.9873 61.7946 14.6127 57.3264 12.2252C52.8582 9.83773 47.9045 8.50011 42.8419 8.31401C37.7792 8.1279 32.7408 9.0982 28.1093 11.1512C23.4779 13.2042 19.3753 16.2858 16.1133 20.162C12.8513 24.0381 10.5158 28.6068 9.28413 33.5209C8.05248 38.435 7.95713 43.5652 9.00531 48.5216C10.0535 53.4781 12.2177 58.1304 15.3333 62.1251L9.54166 67.8751C8.9635 68.461 8.57185 69.2051 8.41613 70.0134C8.2604 70.8217 8.34758 71.658 8.66666 72.4168C8.97924 73.1777 9.51007 73.829 10.1922 74.2888C10.8744 74.7485 11.6774 74.996 12.5 75.0001H36.2083C38.5693 79.9776 42.2918 84.1847 46.9448 87.1343C51.5977 90.0838 56.9909 91.6553 62.5 91.6668H87.5C88.3226 91.6627 89.1256 91.4152 89.8077 90.9554C90.4899 90.4957 91.0207 89.8444 91.3333 89.0834C91.6524 88.3246 91.7396 87.4883 91.5839 86.68C91.4281 85.8718 91.0365 85.1277 90.4583 84.5418L85.875 79.9584ZM33.3333 62.5001C33.339 63.8954 33.4505 65.2883 33.6667 66.6668H22.5417L24 65.2501C24.3905 64.8628 24.7005 64.4019 24.912 63.8942C25.1236 63.3864 25.2325 62.8418 25.2325 62.2918C25.2325 61.7417 25.1236 61.1971 24.912 60.6894C24.7005 60.1816 24.3905 59.7208 24 59.3334C21.6648 57.0239 19.8135 54.2719 18.5544 51.2385C17.2952 48.2051 16.6535 44.9511 16.6667 41.6668C16.6667 35.0364 19.3006 28.6775 23.989 23.9891C28.6774 19.3007 35.0362 16.6668 41.6667 16.6668C46.8403 16.6357 51.8937 18.2267 56.1164 21.2162C60.339 24.2057 63.5187 28.4433 65.2083 33.3334C64.2917 33.3334 63.4167 33.3334 62.5 33.3334C54.7645 33.3334 47.3459 36.4063 41.876 41.8762C36.4062 47.346 33.3333 54.7646 33.3333 62.5001ZM77.25 83.3334L77.4583 83.5418H62.5C57.6806 83.5332 53.0132 81.8539 49.293 78.7901C45.5728 75.7263 43.0299 71.4674 42.0975 66.739C41.1651 62.0107 41.9009 57.1053 44.1795 52.8585C46.4581 48.6118 50.1386 45.2864 54.594 43.4489C59.0494 41.6113 64.004 41.3753 68.6139 42.7811C73.2237 44.1868 77.2036 47.1473 79.8756 51.1582C82.5475 55.1692 83.7462 59.9824 83.2675 64.778C82.7887 69.5736 80.6621 74.0549 77.25 77.4584C76.4649 78.2277 76.0156 79.2761 76 80.3751C76.0023 80.9264 76.1139 81.4717 76.3285 81.9795C76.5431 82.4874 76.8563 82.9475 77.25 83.3334Z" fill="#6246EA"/>
</svg>
