<svg xmlns="http://www.w3.org/2000/svg" width="100" height="100" viewBox="0 0 100 100" fill="none">
  <defs>
    <linearGradient id="iconGradient" x1="0%" y1="0%" x2="100%" y2="100%">
      <stop offset="0%" stop-color="#C89AFC"/>
      <stop offset="100%" stop-color="#7C6AFA"/>
    </linearGradient>
  </defs>
  
  <path d="M94.2083 29.3752L70.8333 5.7919C70.444 5.40573 69.9823 5.1002 69.4746 4.89285C68.9669 4.6855 68.4234 4.5804 67.875 4.58357C66.7819 4.58817 65.7344 5.02213 64.9583 5.7919L5.79165 64.7502C5.01561 65.5309 4.58002 66.587 4.58002 67.6877C4.58002 68.7885 5.01561 69.8446 5.79165 70.6252L29.375 94.2086C29.7643 94.5947 30.2261 94.9003 30.7337 95.1076C31.2414 95.315 31.785 95.4201 32.3333 95.4169C33.4264 95.4123 34.4739 94.9783 35.25 94.2086L47.0417 82.4169L82.4167 47.0419L94.2083 35.2502C94.9844 34.4696 95.42 33.4135 95.42 32.3127C95.42 31.212 94.9844 30.1559 94.2083 29.3752ZM79.4583 38.2086L76.5 35.2502C75.7193 34.4742 74.6633 34.0386 73.5625 34.0386C72.4617 34.0386 71.4057 34.4742 70.625 35.2502C70.2345 35.6376 69.9245 36.0984 69.7129 36.6062C69.5014 37.1139 69.3925 37.6585 69.3925 38.2086C69.3925 38.7586 69.5014 39.3032 69.7129 39.811C69.9245 40.3187 70.2345 40.7796 70.625 41.1669L73.5833 44.1252L67.6667 50.0002L58.8333 41.1669C58.0362 40.4843 57.0109 40.1276 55.9623 40.1681C54.9136 40.2086 53.9189 40.6433 53.1768 41.3854C52.4347 42.1274 52 43.1222 51.9595 44.1708C51.919 45.2195 52.2757 46.2448 52.9583 47.0419L61.7917 55.8752L55.875 61.7919L52.9583 58.8336C52.1737 58.049 51.1096 57.6082 50 57.6082C48.8904 57.6082 47.8263 58.049 47.0417 58.8336C46.2571 59.6182 45.8163 60.6823 45.8163 61.7919C45.8163 62.9015 46.2571 63.9656 47.0417 64.7502L50 67.6669L44.125 73.5836L35.25 64.7502C34.4693 63.9742 33.4133 63.5386 32.3125 63.5386C31.2117 63.5386 30.1557 63.9742 29.375 64.7502C28.5989 65.5309 28.1633 66.587 28.1633 67.6877C28.1633 68.7885 28.5989 69.8446 29.375 70.6252L38.2083 79.4586L32.3333 85.3752L14.625 67.6669L67.6667 14.6252L85.375 32.3336L79.4583 38.2086Z" fill="url(#iconGradient)"/>
</svg>