<svg xmlns="http://www.w3.org/2000/svg" width="100" height="100" viewBox="0 0 100 100" fill="none">
  <defs>
    <linearGradient id="gradientFill" x1="0%" y1="0%" x2="100%" y2="100%">
      <stop offset="0%" stop-color="#C89AFC" />
      <stop offset="100%" stop-color="#7C6AFA" />
    </linearGradient>
  </defs>

  <path
    d="M88.8334 39.7918L80.9584 37.1668L84.6667 29.7502C85.0426 28.9739 85.1684 28.1 85.0266 27.2492C84.8848 26.3984 84.4824 25.6126 83.8751 25.0002L75.0001 16.1252C74.3844 15.5089 73.591 15.101 72.7315 14.959C71.872 14.817 70.9896 14.948 70.2084 15.3335L62.7917 19.0418L60.1667 11.1668C59.8895 10.346 59.3633 9.63195 58.6613 9.12413C57.9593 8.6163 57.1164 8.33994 56.25 8.33351H43.75C42.8765 8.33126 42.0244 8.60359 41.3141 9.11202C40.6038 9.62045 40.0712 10.3393 39.7917 11.1668L37.1667 19.0418L29.7501 15.3335C28.9737 14.9576 28.0999 14.8319 27.2491 14.9737C26.3983 15.1155 25.6125 15.5178 25.0001 16.1252L16.1251 25.0002C15.5087 25.6159 15.1009 26.4092 14.9589 27.2687C14.8169 28.1282 14.9479 29.0106 15.3334 29.7918L19.0417 37.2085L11.1667 39.8335C10.3459 40.1107 9.63183 40.637 9.124 41.339C8.61618 42.0409 8.33982 42.8838 8.33339 43.7502V56.2502C8.33113 57.1237 8.60347 57.9758 9.1119 58.6861C9.62033 59.3964 10.3391 59.929 11.1667 60.2085L19.0417 62.8335L15.3334 70.2502C14.9575 71.0265 14.8317 71.9003 14.9735 72.7511C15.1153 73.6019 15.5177 74.3877 16.1251 75.0002L25.0001 83.8752C25.6157 84.4915 26.4091 84.8993 27.2686 85.0413C28.1281 85.1833 29.0105 85.0524 29.7917 84.6668L37.2084 80.9585L39.8334 88.8335C40.1129 89.6611 40.6455 90.3799 41.3558 90.8883C42.0661 91.3968 42.9182 91.6691 43.7917 91.6668H56.2917C57.1652 91.6691 58.0174 91.3968 58.7277 90.8883C59.438 90.3799 59.9705 89.6611 60.25 88.8335L62.875 80.9585L70.2917 84.6668C71.0631 85.0333 71.9284 85.1539 72.7705 85.0123C73.6127 84.8707 74.391 84.4737 75.0001 83.8752L83.8751 75.0002C84.4914 74.3845 84.8992 73.5911 85.0412 72.7316C85.1832 71.8721 85.0522 70.9897 84.6667 70.2085L80.9584 62.7918L88.8334 60.1668C89.6543 59.8896 90.3683 59.3634 90.8761 58.6614C91.3839 57.9594 91.6603 57.1166 91.6667 56.2502V43.7502C91.669 42.8767 91.3966 42.0245 90.8882 41.3142C90.3798 40.6039 89.661 40.0714 88.8334 39.7918ZM83.3334 53.2502L78.3334 54.9168C77.1836 55.2898 76.1288 55.9084 75.242 56.7298C74.3551 57.5511 73.6576 58.5556 73.1978 59.6734C72.738 60.7913 72.5268 61.9958 72.579 63.2034C72.6312 64.411 72.9455 65.5928 73.5 66.6668L75.8751 71.4168L71.2917 76.0002L66.6667 73.5002C65.5982 72.9678 64.4278 72.6713 63.2347 72.6306C62.0416 72.5899 60.8537 72.806 59.7514 73.2643C58.6491 73.7226 57.6581 74.4124 56.8456 75.287C56.033 76.1616 55.4178 77.2005 55.0417 78.3335L53.3751 83.3335H46.7501L45.0834 78.3335C44.7104 77.1837 44.0918 76.1289 43.2705 75.2421C42.4491 74.3553 41.4447 73.6578 40.3268 73.1979C39.2089 72.7381 38.0044 72.527 36.7968 72.5791C35.5892 72.6313 34.4074 72.9456 33.3334 73.5002L28.5834 75.8752L24.0001 71.2918L26.5001 66.6668C27.0546 65.5928 27.3689 64.411 27.4211 63.2034C27.4733 61.9958 27.2621 60.7913 26.8023 59.6734C26.3425 58.5556 25.645 57.5511 24.7582 56.7298C23.8714 55.9084 22.8165 55.2898 21.6667 54.9168L16.6667 53.2502V46.7502L21.6667 45.0835C22.8165 44.7106 23.8714 44.0919 24.7582 43.2706C25.645 42.4492 26.3425 41.4448 26.8023 40.3269C27.2621 39.2091 27.4733 38.0046 27.4211 36.7969C27.3689 35.5893 27.0546 34.4075 26.5001 33.3335L24.1251 28.7085L28.7084 24.1252L33.3334 26.5002C34.4074 27.0547 35.5892 27.369 36.7968 27.4212C38.0044 27.4734 39.2089 27.2622 40.3268 26.8024C41.4447 26.3426 42.4491 25.6451 43.2705 24.7583C44.0918 23.8715 44.7104 22.8166 45.0834 21.6668L46.7501 16.6668H53.25L54.9167 21.6668C55.2897 22.8166 55.9083 23.8715 56.7296 24.7583C57.551 25.6451 58.5554 26.3426 59.6733 26.8024C60.7912 27.2622 61.9957 27.4734 63.2033 27.4212C64.4109 27.369 65.5927 27.0547 66.6667 26.5002L71.4167 24.1252L76.0001 28.7085L73.5 33.3335C72.9677 34.402 72.6712 35.5725 72.6305 36.7655C72.5898 37.9586 72.8059 39.1465 73.2642 40.2489C73.7225 41.3512 74.4123 42.3421 75.2869 43.1547C76.1615 43.9672 77.2004 44.5824 78.3334 44.9585L83.3334 46.6252V53.2502ZM50 33.3335C46.7037 33.3335 43.4814 34.311 40.7406 36.1423C37.9997 37.9737 35.8635 40.5767 34.6021 43.6221C33.3406 46.6675 33.0105 50.0187 33.6536 53.2517C34.2967 56.4847 35.8841 59.4544 38.2149 61.7853C40.5458 64.1162 43.5155 65.7035 46.7485 66.3466C49.9816 66.9897 53.3327 66.6596 56.3781 65.3982C59.4235 64.1367 62.0265 62.0005 63.8579 59.2597C65.6892 56.5189 66.6667 53.2965 66.6667 50.0002C66.6667 45.5799 64.9108 41.3407 61.7852 38.2151C58.6596 35.0895 54.4203 33.3335 50 33.3335ZM50 58.3335C48.3519 58.3335 46.7407 57.8448 45.3703 56.9291C43.9999 56.0134 42.9318 54.7119 42.3011 53.1892C41.6703 51.6665 41.5053 49.9909 41.8268 48.3744C42.1484 46.7579 42.9421 45.2731 44.1075 44.1076C45.2729 42.9422 46.7578 42.1485 48.3743 41.827C49.9908 41.5054 51.6664 41.6704 53.1891 42.3012C54.7118 42.9319 56.0133 44 56.929 45.3704C57.8446 46.7408 58.3334 48.352 58.3334 50.0002C58.3334 52.2103 57.4554 54.3299 55.8926 55.8927C54.3298 57.4555 52.2102 58.3335 50 58.3335Z"
    fill="url(#gradientFill)" />
</svg>