<svg width="300" height="300" viewBox="0 0 300 300" fill="none" xmlns="http://www.w3.org/2000/svg">
<path d="M175 143.875H205.25C206.895 143.885 208.526 143.569 210.049 142.947C211.572 142.325 212.957 141.409 214.125 140.25L271.375 83.0002C272.547 81.8382 273.477 80.4557 274.111 78.9324C274.746 77.4092 275.072 75.7754 275.072 74.1252C275.072 72.4751 274.746 70.8412 274.111 69.318C273.477 67.7948 272.547 66.4122 271.375 65.2502L241.125 35.0002C239.963 33.8286 238.58 32.8987 237.057 32.2641C235.534 31.6295 233.9 31.3027 232.25 31.3027C230.6 31.3027 228.966 31.6295 227.443 32.2641C225.92 32.8987 224.537 33.8286 223.375 35.0002L166.125 92.2502C163.841 94.6456 162.546 97.8156 162.5 101.125V131.375C162.5 134.69 163.817 137.87 166.161 140.214C168.505 142.558 171.685 143.875 175 143.875ZM187.5 106.375L232.25 61.6252L244.75 74.1252L200 118.875H187.5V106.375ZM262.5 131.375C259.185 131.375 256.005 132.692 253.661 135.036C251.317 137.381 250 140.56 250 143.875V231.375C250 234.69 248.683 237.87 246.339 240.214C243.995 242.558 240.815 243.875 237.5 243.875H62.5C59.1848 243.875 56.0054 242.558 53.6612 240.214C51.317 237.87 50 234.69 50 231.375V111.25L123.5 184.875C126.988 188.409 131.144 191.215 135.725 193.13C140.306 195.045 145.222 196.031 150.188 196.031C155.153 196.031 160.069 195.045 164.65 193.13C169.231 191.215 173.387 188.409 176.875 184.875C179.165 182.539 180.448 179.397 180.448 176.125C180.448 172.853 179.165 169.712 176.875 167.375C175.711 166.185 174.321 165.239 172.786 164.593C171.251 163.947 169.603 163.614 167.938 163.614C166.272 163.614 164.624 163.947 163.089 164.593C161.554 165.239 160.164 166.185 159 167.375C156.663 169.666 153.522 170.948 150.25 170.948C146.978 170.948 143.837 169.666 141.5 167.375L67.625 93.6252H125C128.315 93.6252 131.495 92.3083 133.839 89.9641C136.183 87.6198 137.5 84.4404 137.5 81.1252C137.5 77.81 136.183 74.6306 133.839 72.2864C131.495 69.9422 128.315 68.6252 125 68.6252H62.5C52.5544 68.6252 43.0161 72.5761 35.9835 79.6087C28.9509 86.6413 25 96.1796 25 106.125V231.125C25 241.071 28.9509 250.609 35.9835 257.642C43.0161 264.674 52.5544 268.625 62.5 268.625H237.5C247.446 268.625 256.984 264.674 264.017 257.642C271.049 250.609 275 241.071 275 231.125V143.625C275 140.31 273.683 137.131 271.339 134.786C268.995 132.442 265.815 131.125 262.5 131.125V131.375Z" fill="#6246EA"/>
</svg>
