<svg xmlns="http://www.w3.org/2000/svg" width="45" height="48" viewBox="0 0 45 48" fill="none">
  <defs>
    <linearGradient id="grad1" x1="0%" y1="0%" x2="100%" y2="100%">
      <stop offset="0%" style="stop-color:#C89AFC;stop-opacity:1" />
      <stop offset="100%" style="stop-color:#7C6AFA;stop-opacity:1" />
    </linearGradient>
  </defs>
  <path
    d="M40.3973 39.2576C39.2787 40.0511 37.9542 40.3 36.5005 39.9853C35.7107 39.8188 35.5136 39.7309 34.7271 39.1326C33.7834 38.4146 33.8812 38.5511 32.5331 36.0829C31.5727 34.3284 30.8102 33.5155 28.3253 31.6406C26.3123 30.1248 26.0712 29.9725 25.0239 29.5325C24.3905 29.2833 23.2215 28.9214 22.4045 28.7499C20.5955 28.3509 19.7754 27.9597 19.0596 27.1669C18.334 26.3667 17.9862 25.6213 17.8342 24.4973C17.6564 23.1831 17.9005 22.3139 18.7972 21.1189C19.3967 20.3339 19.5535 20.1895 20.2633 19.8297C22.0776 18.8986 23.9499 19.1128 25.5439 20.4651C26.1997 21.0106 26.3636 21.2438 26.9799 22.4109C27.3699 23.1418 27.9166 24.0541 28.2003 24.4561C29.0489 25.6447 30.6761 27.1774 32.1344 28.1782C33.3099 28.9793 35.0477 29.9601 35.2555 29.932C35.5846 29.8877 36.3365 26.3177 36.4441 24.2432C36.5751 21.6901 36.1768 19.7893 35.0394 17.5744C33.2519 14.0737 28.6872 10.7097 24.7423 9.97357C22.1552 9.49459 19.1522 10.049 15.9984 11.5745C13.6807 12.6967 12.3799 13.7084 11.1311 15.3644C8.16135 19.2949 7.59429 26.4495 9.93429 30.4479C11.2566 32.7259 13.5513 34.8905 16.1827 36.3495C17.576 37.1301 18.6064 37.5106 20.4327 37.9072C21.7137 38.1836 22.0021 38.2944 22.6635 38.7511C24.4612 39.9791 25.167 42.0673 24.4662 44.1248C23.8237 46.025 21.8899 47.3772 19.9249 47.3251C18.8448 47.2946 17.8565 46.8996 17.019 46.1849C16.3707 45.6296 16.1872 45.3814 15.5904 44.2293C14.3893 41.9349 13.6301 41.016 11.6157 39.3595C9.2329 37.3916 7.43753 36.5067 4.629 35.8904C3.13834 35.5631 3.10135 35.5504 2.17728 34.8474C1.34166 34.2117 1.19704 34.0551 0.836615 33.3466C0.347051 32.4002 0.158484 31.2018 0.351501 30.2163C0.474703 29.6274 0.673273 29.2045 1.48665 27.9152C2.26025 26.6577 2.56654 26.0529 2.92818 25.0094C4.10374 21.6376 4.16836 17.7465 3.10505 14.5796C2.61234 13.0878 2.55245 12.5148 2.78523 11.4975C2.92345 10.8889 3.0714 10.6137 3.69094 9.78192C4.35543 8.89125 4.50478 8.7567 5.15518 8.41376C6.06117 7.9395 6.99422 7.79616 8.64507 7.87306C10.3947 7.96301 12.0802 7.70946 13.8598 7.1087C16.8713 6.09542 18.9034 4.81794 20.7707 2.77916C21.8154 1.63474 22.4372 1.14598 23.2355 0.853524C23.9818 0.568074 25.216 0.498607 26.0525 0.68519C26.7067 0.825948 26.9529 0.951225 27.7492 1.55701C28.6733 2.26003 28.6929 2.27502 29.3332 3.55324C30.4824 5.85464 31.6484 7.23816 33.8505 8.91337C36.1312 10.6484 37.5353 11.3132 40.1514 11.8762C41.7408 12.2167 41.7605 12.2317 42.6921 12.9249C43.5572 13.583 43.6625 13.7097 44.0374 14.4602C44.5659 15.4983 44.7225 16.9826 44.4232 17.965C44.2963 18.3958 43.9048 19.1529 43.4393 19.8847C42.5384 21.309 42.0934 22.2582 41.7604 23.4476C40.7641 26.9712 40.7824 30.3669 41.8176 33.3263C42.3862 34.9224 42.4629 35.8804 42.1462 36.8651C41.8906 37.6479 41.0585 38.7989 40.3973 39.2576Z"
    fill="url(#grad1)" />
</svg>