<svg xmlns="http://www.w3.org/2000/svg" width="220" height="220" viewBox="0 0 220 220" fill="none">
  <defs>
    <linearGradient id="grad" x1="0%" y1="0%" x2="100%" y2="100%">
      <stop offset="0%" stop-color="#C89AFC" />
      <stop offset="100%" stop-color="#7C6AFA" />
    </linearGradient>
  </defs>

  <path
    d="M192.5 36.6666H165V27.4999C165 25.0688 164.034 22.7372 162.315 21.0181C160.596 19.299 158.265 18.3333 155.833 18.3333H64.1667C61.7356 18.3333 59.404 19.299 57.6849 21.0181C55.9658 22.7372 55 25.0688 55 27.4999V36.6666H27.5C25.0689 36.6666 22.7373 37.6324 21.0182 39.3514C19.2991 41.0705 18.3334 43.4021 18.3334 45.8333V73.3333C18.3334 83.0579 22.1965 92.3842 29.0728 99.2605C35.9491 106.137 45.2754 110 55 110H69.1167C77.4083 119.25 88.5873 125.421 100.833 127.508V146.667H91.6667C84.3733 146.667 77.3785 149.564 72.2213 154.721C67.064 159.878 64.1667 166.873 64.1667 174.167V192.5C64.1667 194.931 65.1325 197.263 66.8516 198.982C68.5706 200.701 70.9022 201.667 73.3334 201.667H146.667C149.098 201.667 151.429 200.701 153.149 198.982C154.868 197.263 155.833 194.931 155.833 192.5V174.167C155.833 166.873 152.936 159.878 147.779 154.721C142.622 149.564 135.627 146.667 128.333 146.667H119.167V127.508C131.413 125.421 142.592 119.25 150.883 110H165C174.725 110 184.051 106.137 190.927 99.2605C197.804 92.3842 201.667 83.0579 201.667 73.3333V45.8333C201.667 43.4021 200.701 41.0705 198.982 39.3514C197.263 37.6324 194.931 36.6666 192.5 36.6666ZM55 91.6666C50.1377 91.6666 45.4746 89.735 42.0364 86.2969C38.5982 82.8587 36.6667 78.1956 36.6667 73.3333V54.9999H55V73.3333C55.0202 79.5823 56.1052 85.7821 58.2084 91.6666H55ZM128.333 165C130.765 165 133.096 165.966 134.815 167.685C136.534 169.404 137.5 171.735 137.5 174.167V183.333H82.5V174.167C82.5 171.735 83.4658 169.404 85.1849 167.685C86.904 165.966 89.2356 165 91.6667 165H128.333ZM146.667 73.3333C146.667 83.0579 142.804 92.3842 135.927 99.2605C129.051 106.137 119.725 110 110 110C100.275 110 90.9491 106.137 84.0728 99.2605C77.1965 92.3842 73.3334 83.0579 73.3334 73.3333V36.6666H146.667V73.3333ZM183.333 73.3333C183.333 78.1956 181.402 82.8587 177.964 86.2969C174.525 89.735 169.862 91.6666 165 91.6666H161.792C163.895 85.7821 164.98 79.5823 165 73.3333V54.9999H183.333V73.3333Z"
    fill="url(#grad)" />
</svg>