<svg xmlns="http://www.w3.org/2000/svg" width="100" height="100" viewBox="0 0 100 100" fill="none">
  <defs>
    <linearGradient id="gradientFill" x1="0%" y1="0%" x2="100%" y2="100%">
      <stop offset="0%" stop-color="#C89AFC" />
      <stop offset="50%" stop-color="#A28CFB" />
      <stop offset="100%" stop-color="#7C6AFA" />
    </linearGradient>
  </defs>

  <path
    d="M49.9764 8.3335C41.7355 8.3335 33.6797 10.7772 26.8276 15.3556C19.9756 19.934 14.635 26.4414 11.4814 34.055C8.32775 41.6686 7.50261 50.0464 9.11032 58.1289C10.718 66.2115 14.6864 73.6358 20.5136 79.4629C26.3408 85.2901 33.7651 89.2585 41.8476 90.8662C49.9302 92.4739 58.3079 91.6488 65.9215 88.4951C73.5351 85.3415 80.0425 80.001 84.6209 73.1489C89.1993 66.2969 91.6431 58.2411 91.6431 50.0002C91.6435 44.5283 90.5661 39.1099 88.4723 34.0545C86.3785 28.999 83.3094 24.4056 79.4402 20.5364C75.571 16.6672 70.9775 13.598 65.9221 11.5043C60.8666 9.41047 55.4483 8.33304 49.9764 8.3335ZM63.2243 71.4688C63.0684 71.8577 62.8311 72.2087 62.5284 72.4984C62.2257 72.788 61.8645 73.0097 61.4691 73.1483C61.0738 73.287 60.6533 73.3396 60.236 73.3025C59.8187 73.2655 59.4141 73.1396 59.0493 72.9334L47.7382 64.1443L40.4785 70.8418C40.3101 70.9663 40.113 71.0464 39.9055 71.0747C39.698 71.1031 39.4867 71.0788 39.291 71.0041L40.6827 58.5522L40.7273 58.5875L40.7557 58.3417C40.7557 58.3417 61.1099 39.8104 61.9391 39.0208C62.7785 38.2333 62.5015 38.0625 62.5015 38.0625C62.5493 37.102 60.9952 38.0625 60.9952 38.0625L34.0264 55.4127L22.7952 51.5877C22.7952 51.5877 21.0702 50.9689 20.9077 49.6085C20.7368 48.2585 22.8514 47.5252 22.8514 47.5252L67.5056 29.7855C67.5056 29.7855 71.1764 28.15 71.1764 30.8585L63.2243 71.4688Z"
    fill="url(#gradientFill)" />
</svg>