<svg width="220" height="220" viewBox="0 0 220 220" fill="none" xmlns="http://www.w3.org/2000/svg">
<path d="M112.75 112.017C117.641 107.783 121.564 102.546 124.253 96.6626C126.942 90.7789 128.333 84.3856 128.333 77.9166C128.333 65.7608 123.504 54.1029 114.909 45.5075C106.314 36.9121 94.6557 32.0833 82.5 32.0833C70.3442 32.0833 58.6863 36.9121 50.0909 45.5075C41.4955 54.1029 36.6667 65.7608 36.6667 77.9166C36.6666 84.3856 38.0582 90.7789 40.747 96.6626C43.4358 102.546 47.3589 107.783 52.25 112.017C39.4179 117.827 28.5309 127.211 20.8906 139.045C13.2504 150.879 9.18015 164.664 9.16666 178.75C9.16666 181.181 10.1324 183.513 11.8515 185.232C13.5706 186.951 15.9022 187.917 18.3333 187.917C20.7645 187.917 23.0961 186.951 24.8151 185.232C26.5342 183.513 27.5 181.181 27.5 178.75C27.5 164.163 33.2946 150.174 43.6091 139.859C53.9236 129.545 67.9131 123.75 82.5 123.75C97.0869 123.75 111.076 129.545 121.391 139.859C131.705 150.174 137.5 164.163 137.5 178.75C137.5 181.181 138.466 183.513 140.185 185.232C141.904 186.951 144.235 187.917 146.667 187.917C149.098 187.917 151.429 186.951 153.148 185.232C154.868 183.513 155.833 181.181 155.833 178.75C155.82 164.664 151.75 150.879 144.109 139.045C136.469 127.211 125.582 117.827 112.75 112.017ZM82.5 105.417C77.061 105.417 71.7442 103.804 67.2218 100.782C62.6995 97.7603 59.1747 93.4654 57.0933 88.4404C55.0119 83.4154 54.4673 77.8861 55.5284 72.5516C56.5895 67.2171 59.2086 62.3171 63.0546 58.4712C66.9005 54.6252 71.8005 52.0061 77.135 50.945C82.4695 49.8839 87.9988 50.4285 93.0238 52.5099C98.0487 54.5913 102.344 58.1161 105.365 62.6384C108.387 67.1608 110 72.4776 110 77.9166C110 85.21 107.103 92.2048 101.945 97.362C96.7882 102.519 89.7934 105.417 82.5 105.417ZM171.783 108.35C177.65 101.744 181.482 93.5829 182.818 84.8497C184.155 76.1165 182.938 67.1831 179.316 59.1249C175.694 51.0667 169.82 44.2272 162.401 39.4296C154.982 34.632 146.335 32.0809 137.5 32.0833C135.069 32.0833 132.737 33.049 131.018 34.7681C129.299 36.4872 128.333 38.8188 128.333 41.2499C128.333 43.6811 129.299 46.0126 131.018 47.7317C132.737 49.4508 135.069 50.4166 137.5 50.4166C144.793 50.4166 151.788 53.3139 156.945 58.4712C162.103 63.6284 165 70.6231 165 77.9166C164.987 82.7313 163.71 87.4582 161.297 91.6246C158.884 95.791 155.42 99.2509 151.25 101.658C149.891 102.442 148.756 103.562 147.953 104.91C147.151 106.258 146.708 107.79 146.667 109.358C146.628 110.914 146.987 112.455 147.709 113.834C148.43 115.213 149.491 116.386 150.792 117.242L154.367 119.625L155.558 120.267C166.608 125.507 175.93 133.797 182.426 144.158C188.922 154.519 192.322 166.521 192.225 178.75C192.225 181.181 193.191 183.513 194.91 185.232C196.629 186.951 198.96 187.917 201.392 187.917C203.823 187.917 206.154 186.951 207.873 185.232C209.593 183.513 210.558 181.181 210.558 178.75C210.633 164.683 207.11 150.831 200.323 138.509C193.537 126.187 183.712 115.805 171.783 108.35Z" fill="#6246EA"/>
</svg>
