<svg xmlns="http://www.w3.org/2000/svg" width="100" height="100" viewBox="0 0 100 100" fill="none">
  <defs>
    <linearGradient id="gradientFill" x1="0%" y1="0%" x2="100%" y2="100%">
      <stop offset="0%" stop-color="#C89AFC" />
      <stop offset="50%" stop-color="#9A82FB" />
      <stop offset="100%" stop-color="#7C6AFA" />
    </linearGradient>
  </defs>

  <path
    d="M91.6667 27.2918C91.6199 25.4942 91.4808 23.7002 91.25 21.9168C90.9389 20.3548 90.4204 18.8414 89.7084 17.4168C88.9636 15.8714 87.9635 14.4628 86.75 13.2502C85.5254 12.051 84.1192 11.0526 82.5834 10.2918C81.1569 9.59368 79.6435 9.08922 78.0834 8.79183C76.317 8.52724 74.5357 8.37416 72.75 8.3335H27.2917C25.4941 8.38031 23.7001 8.51939 21.9167 8.75016C20.3547 9.06128 18.8413 9.57976 17.4167 10.2918C15.8713 11.0366 14.4627 12.0367 13.25 13.2502C12.0509 14.4748 11.0525 15.881 10.2917 17.4168C9.59356 18.8433 9.0891 20.3567 8.79171 21.9168C8.52712 23.6832 8.37404 25.4645 8.33337 27.2502C8.33337 28.0418 8.33337 29.1668 8.33337 29.5002V70.5002C8.33337 70.9585 8.33337 71.9585 8.33337 72.7085C8.38019 74.5061 8.51926 76.3001 8.75004 78.0835C9.06116 79.6455 9.57964 81.1589 10.2917 82.5835C11.0364 84.1289 12.0366 85.5376 13.25 86.7502C14.4747 87.9493 15.8808 88.9477 17.4167 89.7085C18.8432 90.4066 20.3566 90.9111 21.9167 91.2085C23.6831 91.4731 25.4644 91.6262 27.25 91.6668H72.7084C74.506 91.62 76.3 91.4809 78.0834 91.2502C79.6454 90.939 81.1588 90.4206 82.5834 89.7085C84.1288 88.9638 85.5374 87.9636 86.75 86.7502C87.9492 85.5255 88.9476 84.1193 89.7084 82.5835C90.4065 81.157 90.911 79.6436 91.2084 78.0835C91.473 76.3171 91.626 74.5358 91.6667 72.7502C91.6667 71.9585 91.6667 70.9585 91.6667 70.5002V29.5002C91.6667 29.1668 91.6667 28.0418 91.6667 27.2918ZM50.9584 79.1668C45.9545 79.1421 41.0381 77.8521 36.6667 75.4168L20.8334 79.5835L25 64.0835C22.313 59.5687 20.875 54.4206 20.8334 49.1668C20.85 43.2623 22.6134 37.4948 25.9015 32.5906C29.1897 27.6864 33.8555 23.8649 39.3114 21.6073C44.7673 19.3497 50.7692 18.7571 56.5612 19.9041C62.3533 21.051 67.6764 23.8863 71.8602 28.0527C76.044 32.2191 78.9013 37.5304 80.0723 43.3176C81.2433 49.1048 80.6757 55.1091 78.4408 60.5744C76.206 66.0396 72.4039 70.7213 67.5134 74.0298C62.6229 77.3383 56.8627 79.1257 50.9584 79.1668ZM50.9584 24.4585C46.5409 24.509 42.2157 25.7293 38.4232 27.9949C34.6306 30.2605 31.5062 33.4907 29.3679 37.3565C27.2297 41.2223 26.154 45.5857 26.2504 50.0024C26.3468 54.4191 27.6118 58.7313 29.9167 62.5002L30.5 63.4585L28 72.5835L37.5 70.0002L38.4167 70.5418C42.2066 72.7742 46.5184 73.9671 50.9167 74.0002C57.5471 74.0002 63.906 71.3662 68.5944 66.6778C73.2828 61.9894 75.9167 55.6306 75.9167 49.0002C75.9167 42.3698 73.2828 36.0109 68.5944 31.3225C63.906 26.6341 57.5471 24.0002 50.9167 24.0002L50.9584 24.4585ZM65.5417 59.9585C64.996 60.8688 64.2652 61.6544 63.3968 62.2644C62.5283 62.8745 61.5415 63.2955 60.5 63.5002C58.944 63.7846 57.3419 63.6845 55.8334 63.2085C54.414 62.7647 53.0226 62.236 51.6667 61.6252C46.5156 59.0404 42.1227 55.1643 38.9167 50.3752C37.1746 48.1563 36.1175 45.4775 35.875 42.6668C35.8502 41.4993 36.0711 40.3396 36.5233 39.2628C36.9755 38.1861 37.649 37.2165 38.5 36.4168C38.7507 36.1326 39.0583 35.9042 39.4028 35.7463C39.7473 35.5884 40.1211 35.5045 40.5 35.5002H41.6667C42.125 35.5002 42.75 35.5002 43.3334 36.7918C43.9167 38.0835 45.4584 41.9585 45.6667 42.3335C45.7691 42.5334 45.8225 42.7547 45.8225 42.9793C45.8225 43.2039 45.7691 43.4253 45.6667 43.6252C45.4825 44.0779 45.2295 44.4996 44.9167 44.8752C44.5417 45.3335 44.125 45.8752 43.7917 46.2085C43.4584 46.5418 43.0417 46.9585 43.4584 47.7085C44.5921 49.6218 45.9954 51.3619 47.625 52.8752C49.3997 54.4433 51.4288 55.6974 53.625 56.5835C54.375 56.9585 54.8334 56.9168 55.25 56.5835C55.6667 56.2502 57.125 54.4168 57.625 53.6668C58.125 52.9168 58.625 53.0418 59.2917 53.2918C59.9584 53.5418 63.6667 55.3335 64.4167 55.7085C65.1667 56.0835 65.625 56.2502 65.8334 56.5835C66.0141 57.674 65.9137 58.7926 65.5417 59.8335V59.9585Z"
    fill="url(#gradientFill)" />
</svg>