<svg xmlns="http://www.w3.org/2000/svg" width="249" height="62" viewBox="0 0 249 62" fill="none">
  <path
    d="M176.403 45.6256V11.57H188.328C190.704 11.57 192.664 11.9802 194.207 12.8006C195.751 13.6098 196.9 14.7019 197.656 16.0765C198.41 17.44 198.788 18.9533 198.788 20.6161C198.788 22.0794 198.527 23.2878 198.005 24.2412C197.494 25.1945 196.817 25.9483 195.973 26.5027C195.141 27.057 194.236 27.4672 193.258 27.7332V28.0657C194.302 28.1323 195.351 28.4981 196.406 29.1632C197.461 29.8284 198.344 30.7818 199.054 32.0234C199.765 33.2649 200.121 34.7838 200.121 36.5796C200.121 38.2868 199.732 39.8221 198.954 41.1859C198.178 42.5494 196.95 43.6302 195.273 44.4284C193.597 45.2265 191.415 45.6256 188.728 45.6256H176.403ZM180.533 41.9673H188.728C191.426 41.9673 193.341 41.4463 194.474 40.4042C195.618 39.3511 196.189 38.0762 196.189 36.5796C196.189 35.4267 195.895 34.3624 195.307 33.3869C194.718 32.4003 193.88 31.6132 192.791 31.0257C191.703 30.427 190.415 30.1276 188.928 30.1276H180.533V41.9673ZM180.533 26.5359H188.195C189.438 26.5359 190.56 26.292 191.559 25.8043C192.57 25.3164 193.369 24.6292 193.958 23.7423C194.557 22.8554 194.858 21.8134 194.858 20.6161C194.858 19.1195 194.335 17.8502 193.291 16.8081C192.247 15.755 190.593 15.2284 188.328 15.2284H180.533V26.5359Z"
    fill="#fff" />
  <path
    d="M171.839 28.5978C171.839 32.1897 171.189 35.2936 169.89 37.9099C168.591 40.5262 166.809 42.5438 164.544 43.9627C162.278 45.3817 159.692 46.0913 156.782 46.0913C153.873 46.0913 151.286 45.3817 149.021 43.9627C146.755 42.5438 144.973 40.5262 143.674 37.9099C142.375 35.2936 141.725 32.1897 141.725 28.5978C141.725 25.0061 142.375 21.902 143.674 19.2858C144.973 16.6696 146.755 14.6519 149.021 13.2329C151.286 11.814 153.873 11.1045 156.782 11.1045C159.692 11.1045 162.278 11.814 164.544 13.2329C166.809 14.6519 168.591 16.6696 169.89 19.2858C171.189 21.902 171.839 25.0061 171.839 28.5978ZM167.841 28.5978C167.841 25.649 167.347 23.1603 166.359 21.1316C165.382 19.1029 164.055 17.5675 162.378 16.5254C160.713 15.4833 158.847 14.9624 156.782 14.9624C154.717 14.9624 152.846 15.4833 151.169 16.5254C149.504 17.5675 148.177 19.1029 147.188 21.1316C146.211 23.1603 145.723 25.649 145.723 28.5978C145.723 31.5467 146.211 34.0355 147.188 36.0642C148.177 38.0928 149.504 39.6282 151.169 40.6702C152.846 41.7123 154.717 42.2334 156.782 42.2334C158.847 42.2334 160.713 41.7123 162.378 40.6702C164.055 39.6282 165.382 38.0928 166.359 36.0642C167.347 34.0355 167.841 31.5467 167.841 28.5978Z"
    fill="#fff" />
  <path d="M109.836 11.57V45.6256H105.705V11.57H109.836Z" fill="#fff" />
  <path d="M208.862 11.57V45.6256H204.732V11.57H208.862Z" fill="#fff" />
  <path
    d="M96.8782 20.0839C96.678 18.3989 95.8678 17.0908 94.4466 16.1596C93.0255 15.2284 91.2817 14.7628 89.2164 14.7628C87.7063 14.7628 86.385 15.0067 85.2524 15.4944C84.1309 15.9823 83.2537 16.6529 82.6208 17.5065C81.999 18.3601 81.688 19.3302 81.688 20.4166C81.688 21.3256 81.9046 22.1071 82.3376 22.7612C82.7818 23.4042 83.3481 23.9418 84.0366 24.3741C84.725 24.7954 85.4467 25.1447 86.2017 25.4218C86.9568 25.6879 87.6508 25.9041 88.2837 26.0704L91.7481 27.0016C92.6363 27.2343 93.6244 27.5558 94.7127 27.966C95.8121 28.3762 96.8615 28.936 97.8609 29.6455C98.8713 30.3439 99.7038 31.2418 100.359 32.3393C101.015 33.4368 101.342 34.7838 101.342 36.3801C101.342 38.2203 100.859 39.8832 99.8929 41.3687C98.9381 42.8542 97.5383 44.0348 95.6953 44.9106C93.8635 45.7864 91.637 46.2242 89.0166 46.2242C86.5737 46.2242 84.4585 45.8307 82.6708 45.0436C80.8941 44.2565 79.495 43.159 78.4736 41.7511C77.4631 40.3432 76.8912 38.7082 76.758 36.8457H81.0219C81.1329 38.1317 81.5659 39.1958 82.321 40.0384C83.0871 40.8698 84.0532 41.4907 85.2191 41.9008C86.396 42.2998 87.6619 42.4994 89.0166 42.4994C90.5933 42.4994 92.009 42.2444 93.2637 41.7346C94.5189 41.2135 95.5118 40.4929 96.2451 39.5728C96.9783 38.6415 97.3445 37.5553 97.3445 36.3136C97.3445 35.1828 97.0284 34.2628 96.3952 33.5532C95.7621 32.8437 94.9296 32.2672 93.8969 31.8239C92.8642 31.3803 91.7481 30.9924 90.5488 30.6598L86.3516 29.4626C83.6868 28.6977 81.5771 27.6057 80.0225 26.1868C78.468 24.7677 77.6907 22.9109 77.6907 20.6161C77.6907 18.7094 78.207 17.0465 79.2397 15.6275C80.2835 14.1974 81.6826 13.0888 83.437 12.3017C85.2024 11.5036 87.1734 11.1045 89.3496 11.1045C91.5482 11.1045 93.5029 11.498 95.2124 12.2852C96.9227 13.0611 98.2771 14.1254 99.2765 15.4779C100.287 16.8302 100.82 18.3657 100.876 20.0839H96.8782Z"
    fill="#fff" />
  <path d="M213.448 15.2284V11.57H239.03V15.2284H228.304V45.6256H224.173V15.2284H213.448Z"
    fill="#fff" />
  <path d="M119.003 11.551H114.422V45.6298H119.003V11.551Z" fill="#fff" />
  <path d="M137.874 11.5512H143.161L119.031 45.649L115.064 43.7808L137.874 11.5512Z" fill="#fff" />
  <path d="M76.758 52.3761L249 49.6925H78.7511L76.758 52.3761Z" fill="#fff" />
  <path
    d="M49.3973 46.2576C48.2787 47.0511 46.9542 47.3 45.5005 46.9853C44.7107 46.8188 44.5136 46.7309 43.7271 46.1326C42.7834 45.4146 42.8812 45.5511 41.5331 43.0829C40.5727 41.3284 39.8102 40.5155 37.3253 38.6406C35.3123 37.1248 35.0712 36.9725 34.0239 36.5325C33.3905 36.2833 32.2215 35.9214 31.4045 35.7499C29.5955 35.3509 28.7754 34.9597 28.0596 34.1669C27.334 33.3667 26.9862 32.6213 26.8342 31.4973C26.6564 30.1831 26.9005 29.3139 27.7972 28.1189C28.3967 27.3339 28.5535 27.1895 29.2633 26.8297C31.0776 25.8986 32.9499 26.1128 34.5439 27.4651C35.1997 28.0106 35.3636 28.2438 35.9799 29.4109C36.3699 30.1418 36.9166 31.0541 37.2003 31.4561C38.0489 32.6447 39.6761 34.1774 41.1344 35.1782C42.3099 35.9793 44.0477 36.9601 44.2555 36.932C44.5846 36.8877 45.3365 33.3177 45.4441 31.2432C45.5751 28.6901 45.1768 26.7893 44.0394 24.5744C42.2519 21.0737 37.6872 17.7097 33.7423 16.9736C31.1552 16.4946 28.1522 17.049 24.9984 18.5745C22.6807 19.6967 21.3799 20.7084 20.1311 22.3644C17.1613 26.2949 16.5943 33.4495 18.9343 37.4479C20.2566 39.7259 22.5513 41.8905 25.1827 43.3495C26.576 44.1301 27.6064 44.5106 29.4327 44.9072C30.7137 45.1836 31.0021 45.2944 31.6635 45.7511C33.4612 46.9791 34.167 49.0673 33.4662 51.1248C32.8237 53.025 30.8899 54.3772 28.9249 54.3251C27.8448 54.2946 26.8565 53.8996 26.019 53.1849C25.3707 52.6296 25.1872 52.3814 24.5904 51.2293C23.3893 48.9349 22.6301 48.016 20.6157 46.3595C18.2329 44.3916 16.4375 43.5067 13.629 42.8904C12.1383 42.5631 12.1013 42.5504 11.1773 41.8474C10.3417 41.2117 10.197 41.0551 9.83662 40.3466C9.34705 39.4002 9.15848 38.2018 9.3515 37.2163C9.4747 36.6274 9.67327 36.2045 10.4866 34.9152C11.2603 33.6577 11.5665 33.0529 11.9282 32.0094C13.1037 28.6376 13.1684 24.7465 12.1051 21.5796C11.6123 20.0878 11.5525 19.5148 11.7852 18.4975C11.9234 17.8889 12.0714 17.6137 12.6909 16.7819C13.3554 15.8913 13.5048 15.7567 14.1552 15.4138C15.0612 14.9395 15.9942 14.7962 17.6451 14.8731C19.3947 14.963 21.0802 14.7095 22.8598 14.1087C25.8713 13.0954 27.9034 11.8179 29.7707 9.77916C30.8154 8.63474 31.4372 8.14598 32.2355 7.85352C32.9818 7.56807 34.216 7.49861 35.0525 7.68519C35.7067 7.82595 35.9529 7.95123 36.7492 8.55701C37.6733 9.26003 37.6929 9.27502 38.3332 10.5532C39.4824 12.8546 40.6484 14.2382 42.8505 15.9134C45.1312 17.6484 46.5353 18.3132 49.1514 18.8762C50.7408 19.2167 50.7605 19.2317 51.6921 19.9249C52.5572 20.583 52.6625 20.7097 53.0374 21.4602C53.5659 22.4983 53.7225 23.9826 53.4232 24.965C53.2963 25.3958 52.9048 26.1529 52.4393 26.8847C51.5384 28.309 51.0934 29.2582 50.7604 30.4476C49.7641 33.9712 49.7824 37.3669 50.8176 40.3263C51.3862 41.9224 51.4629 42.8804 51.1462 43.8651C50.8906 44.6479 50.0585 45.7989 49.3973 46.2576Z"
    fill="#fff" />
</svg>