            <svg
              class="logo__svg"
              xmlns="http://www.w3.org/2000/svg"
              width="200"
              height="50"
              viewBox="0 0 249 62"
              fill="none"
            >
              <path
                d="M176.403 45.6256V11.57H188.328C190.704 11.57 192.664 11.9802 194.207 12.8006C195.751 13.6098 196.9 14.7019 197.656 16.0765C198.41 17.44 198.788 18.9533 198.788 20.6161C198.788 22.0794 198.527 23.2878 198.005 24.2412C197.494 25.1945 196.817 25.9483 195.973 26.5027C195.141 27.057 194.236 27.4672 193.258 27.7332V28.0657C194.302 28.1323 195.351 28.4981 196.406 29.1632C197.461 29.8284 198.344 30.7818 199.054 32.0234C199.765 33.2649 200.121 34.7838 200.121 36.5796C200.121 38.2868 199.732 39.8221 198.954 41.1859C198.178 42.5494 196.95 43.6302 195.273 44.4284C193.597 45.2265 191.415 45.6256 188.728 45.6256H176.403ZM180.533 41.9673H188.728C191.426 41.9673 193.341 41.4463 194.474 40.4042C195.618 39.3511 196.189 38.0762 196.189 36.5796C196.189 35.4267 195.895 34.3624 195.307 33.3869C194.718 32.4003 193.88 31.6132 192.791 31.0257C191.703 30.427 190.415 30.1276 188.928 30.1276H180.533V41.9673ZM180.533 26.5359H188.195C189.438 26.5359 190.56 26.292 191.559 25.8043C192.57 25.3164 193.369 24.6292 193.958 23.7423C194.557 22.8554 194.858 21.8134 194.858 20.6161C194.858 19.1195 194.335 17.8502 193.291 16.8081C192.247 15.755 190.593 15.2284 188.328 15.2284H180.533V26.5359Z"
                fill="#6246EA"
              />
              <path
                d="M171.839 28.5978C171.839 32.1897 171.189 35.2936 169.89 37.9099C168.591 40.5262 166.809 42.5438 164.544 43.9627C162.278 45.3817 159.692 46.0913 156.782 46.0913C153.873 46.0913 151.286 45.3817 149.021 43.9627C146.755 42.5438 144.973 40.5262 143.674 37.9099C142.375 35.2936 141.725 32.1897 141.725 28.5978C141.725 25.0061 142.375 21.902 143.674 19.2858C144.973 16.6696 146.755 14.6519 149.021 13.2329C151.286 11.814 153.873 11.1045 156.782 11.1045C159.692 11.1045 162.278 11.814 164.544 13.2329C166.809 14.6519 168.591 16.6696 169.89 19.2858C171.189 21.902 171.839 25.0061 171.839 28.5978ZM167.841 28.5978C167.841 25.649 167.347 23.1603 166.359 21.1316C165.382 19.1029 164.055 17.5675 162.378 16.5254C160.713 15.4833 158.847 14.9624 156.782 14.9624C154.717 14.9624 152.846 15.4833 151.169 16.5254C149.504 17.5675 148.177 19.1029 147.188 21.1316C146.211 23.1603 145.723 25.649 145.723 28.5978C145.723 31.5467 146.211 34.0355 147.188 36.0642C148.177 38.0928 149.504 39.6282 151.169 40.6702C152.846 41.7123 154.717 42.2334 156.782 42.2334C158.847 42.2334 160.713 41.7123 162.378 40.6702C164.055 39.6282 165.382 38.0928 166.359 36.0642C167.347 34.0355 167.841 31.5467 167.841 28.5978Z"
                fill="#6246EA"
              />
              <path
                d="M109.836 11.57V45.6256H105.705V11.57H109.836Z"
                fill="#6246EA"
              />
              <path
                d="M208.862 11.57V45.6256H204.732V11.57H208.862Z"
                fill="#6246EA"
              />
              <path
                d="M96.8782 20.0839C96.678 18.3989 95.8678 17.0908 94.4466 16.1596C93.0255 15.2284 91.2817 14.7628 89.2164 14.7628C87.7063 14.7628 86.385 15.0067 85.2524 15.4944C84.1309 15.9823 83.2537 16.6529 82.6208 17.5065C81.999 18.3601 81.688 19.3302 81.688 20.4166C81.688 21.3256 81.9046 22.1071 82.3376 22.7612C82.7818 23.4042 83.3481 23.9418 84.0366 24.3741C84.725 24.7954 85.4467 25.1447 86.2017 25.4218C86.9568 25.6879 87.6508 25.9041 88.2837 26.0704L91.7481 27.0016C92.6363 27.2343 93.6244 27.5558 94.7127 27.966C95.8121 28.3762 96.8615 28.936 97.8609 29.6455C98.8713 30.3439 99.7038 31.2418 100.359 32.3393C101.015 33.4368 101.342 34.7838 101.342 36.3801C101.342 38.2203 100.859 39.8832 99.8929 41.3687C98.9381 42.8542 97.5383 44.0348 95.6953 44.9106C93.8635 45.7864 91.637 46.2242 89.0166 46.2242C86.5737 46.2242 84.4585 45.8307 82.6708 45.0436C80.8941 44.2565 79.495 43.159 78.4736 41.7511C77.4631 40.3432 76.8912 38.7082 76.758 36.8457H81.0219C81.1329 38.1317 81.5659 39.1958 82.321 40.0384C83.0871 40.8698 84.0532 41.4907 85.2191 41.9008C86.396 42.2998 87.6619 42.4994 89.0166 42.4994C90.5933 42.4994 92.009 42.2444 93.2637 41.7346C94.5189 41.2135 95.5118 40.4929 96.2451 39.5728C96.9783 38.6415 97.3445 37.5553 97.3445 36.3136C97.3445 35.1828 97.0284 34.2628 96.3952 33.5532C95.7621 32.8437 94.9296 32.2672 93.8969 31.8239C92.8642 31.3803 91.7481 30.9924 90.5488 30.6598L86.3516 29.4626C83.6868 28.6977 81.5771 27.6057 80.0225 26.1868C78.468 24.7677 77.6907 22.9109 77.6907 20.6161C77.6907 18.7094 78.207 17.0465 79.2397 15.6275C80.2835 14.1974 81.6826 13.0888 83.437 12.3017C85.2024 11.5036 87.1734 11.1045 89.3496 11.1045C91.5482 11.1045 93.5029 11.498 95.2124 12.2852C96.9227 13.0611 98.2771 14.1254 99.2765 15.4779C100.287 16.8302 100.82 18.3657 100.876 20.0839H96.8782Z"
                fill="#6246EA"
              />
              <path
                d="M213.448 15.2284V11.57H239.03V15.2284H228.304V45.6256H224.173V15.2284H213.448Z"
                fill="#6246EA"
              />
              <path
                d="M119.003 11.551H114.422V45.6298H119.003V11.551Z"
                fill="#6246EA"
              />
              <path
                d="M137.874 11.5512H143.161L119.031 45.649L115.064 43.7808L137.874 11.5512Z"
                fill="#6246EA"
              />
              <path
                d="M76.758 52.3761L249 49.6925H78.7511L76.758 52.3761Z"
                fill="#6246EA"
              />
            </svg>