<svg width="500" height="500" viewBox="0 0 500 500" fill="none" xmlns="http://www.w3.org/2000/svg">
<path d="M452.859 413.693C440.232 422.179 425.283 424.842 408.874 421.475C399.959 419.695 397.734 418.754 388.857 412.355C378.205 404.675 379.309 406.135 364.092 379.734C353.252 360.968 344.644 352.273 316.596 332.219C293.874 316.005 291.153 314.376 279.332 309.67C272.182 307.005 258.987 303.134 249.765 301.299C229.346 297.032 220.089 292.847 212.01 284.367C203.82 275.808 199.893 267.834 198.178 255.812C196.171 241.755 198.927 232.458 209.048 219.677C215.814 211.279 217.585 209.735 225.597 205.887C246.076 195.927 267.208 198.219 285.201 212.683C292.603 218.518 294.453 221.012 301.411 233.495C305.812 241.314 311.983 251.072 315.185 255.372C324.764 268.085 343.131 284.479 359.592 295.184C372.86 303.753 392.475 314.243 394.821 313.943C398.536 313.469 407.023 275.284 408.237 253.094C409.715 225.786 405.22 205.454 392.382 181.763C372.206 144.319 320.681 108.337 276.153 100.463C246.951 95.3399 213.055 101.27 177.456 117.587C151.295 129.59 136.612 140.411 122.516 158.125C88.9956 200.167 82.5948 276.693 109.008 319.462C123.933 343.827 149.834 366.981 179.537 382.586C195.263 390.936 206.894 395.006 227.509 399.248C241.968 402.204 245.223 403.39 252.689 408.274C272.98 421.409 280.946 443.745 273.037 465.753C265.784 486.078 243.957 500.542 221.776 499.984C209.585 499.658 198.43 495.432 188.977 487.788C181.658 481.848 179.587 479.194 172.851 466.871C159.294 442.329 150.724 432.501 127.987 414.782C101.091 393.733 80.8254 384.268 49.1241 377.676C32.2983 374.175 31.8808 374.039 21.4504 366.52C12.0183 359.72 10.3859 358.045 6.3176 350.467C0.791645 340.343 -1.33681 327.525 0.84187 316.984C2.23251 310.685 4.47387 306.162 13.6548 292.371C22.3869 278.92 25.8442 272.452 29.9261 261.29C43.1953 225.225 43.9246 183.604 31.9226 149.73C26.3611 133.774 25.6851 127.645 28.3126 116.763C29.8728 110.254 31.5428 107.311 38.5358 98.4132C46.0363 88.8864 47.722 87.4472 55.0634 83.779C65.2897 78.7063 75.8216 77.1731 94.4556 77.9956C114.204 78.9577 133.229 76.2456 153.317 69.8198C187.309 58.9815 210.246 45.3173 231.324 23.51C243.115 11.269 250.135 6.0411 259.145 2.91293C267.569 -0.14031 281.5 -0.883353 290.942 1.11238C298.326 2.61797 301.105 3.95797 310.093 10.4376C320.524 17.9572 320.746 18.1176 327.973 31.7897C340.944 56.406 354.105 71.2046 378.962 89.1229C404.705 107.682 420.554 114.792 450.083 120.814C468.024 124.456 468.246 124.616 478.761 132.031C488.526 139.07 489.715 140.425 493.946 148.454C499.912 159.557 501.68 175.434 498.301 185.941C496.869 190.55 492.45 198.647 487.195 206.475C477.026 221.71 472.004 231.862 468.245 244.584C456.999 282.274 457.206 318.595 468.891 350.249C475.309 367.321 476.174 377.569 472.6 388.101C469.714 396.474 460.322 408.785 452.859 413.693Z" fill="white"/>
</svg>
