<svg width="100" height="100" viewBox="0 0 100 100" fill="none" xmlns="http://www.w3.org/2000/svg">
<path d="M88.75 41.9999C87.5792 40.5942 86.1141 39.4627 84.4583 38.6852C82.8024 37.9076 80.996 37.503 79.1666 37.4999H60.1666L62.5 31.5415C63.4705 28.9327 63.7937 26.1274 63.4419 23.3662C63.0901 20.605 62.0737 17.9704 60.4799 15.6883C58.8862 13.4062 56.7626 11.5448 54.2914 10.2638C51.8202 8.98273 49.0751 8.32026 46.2916 8.33319C45.4901 8.33487 44.7061 8.56767 44.0336 9.00371C43.3611 9.43974 42.8286 10.0605 42.5 10.7915L30.625 37.4999H20.8333C17.5181 37.4999 14.3387 38.8168 11.9945 41.161C9.65027 43.5052 8.33331 46.6847 8.33331 49.9999V79.1665C8.33331 82.4817 9.65027 85.6612 11.9945 88.0054C14.3387 90.3496 17.5181 91.6665 20.8333 91.6665H73.875C76.7992 91.6656 79.6305 90.6394 81.8763 88.7666C84.1221 86.8939 85.6403 84.293 86.1666 81.4165L91.4583 52.2499C91.7856 50.4473 91.7127 48.5948 91.2446 46.8235C90.7766 45.0522 89.925 43.4055 88.75 41.9999ZM29.1666 83.3332H20.8333C19.7282 83.3332 18.6684 82.8942 17.887 82.1128C17.1056 81.3314 16.6666 80.2716 16.6666 79.1665V49.9999C16.6666 48.8948 17.1056 47.835 17.887 47.0536C18.6684 46.2722 19.7282 45.8332 20.8333 45.8332H29.1666V83.3332ZM83.3333 50.7499L78.0416 79.9165C77.8642 80.8872 77.348 81.7634 76.5849 82.389C75.8219 83.0147 74.8616 83.3493 73.875 83.3332H37.5V42.5415L48.8333 17.0415C49.9999 17.3816 51.0833 17.9599 52.0152 18.7398C52.9471 19.5197 53.7072 20.4843 54.2475 21.5727C54.7878 22.6612 55.0966 23.8498 55.1544 25.0636C55.2122 26.2774 55.0177 27.49 54.5833 28.6249L52.375 34.5832C51.9044 35.8426 51.7456 37.1971 51.912 38.5312C52.0784 39.8653 52.5651 41.1394 53.3305 42.2446C54.096 43.3498 55.1175 44.2535 56.3079 44.8784C57.4983 45.5032 58.8222 45.8308 60.1666 45.8332H79.1666C79.7788 45.8322 80.3836 45.9661 80.9381 46.2253C81.4926 46.4846 81.9832 46.8629 82.375 47.3332C82.7764 47.797 83.0704 48.3438 83.236 48.9344C83.4017 49.525 83.4349 50.1449 83.3333 50.7499Z" fill="#6246EA"/>
</svg>
